<?xml version="1.0" encoding="UTF-8" standalone="no"?>
<svg
   version="1.1"
   x="0px"
   y="0px"
   viewBox="0 0 90 112.5"
   enable-background="new 0 0 90 90"
   xml:space="preserve"
   id="svg7"
   sodipodi:docname="noun-profitable-4736058.svg"
   inkscape:version="1.3.1 (91b66b0783, 2023-11-16)"
   xmlns:inkscape="http://www.inkscape.org/namespaces/inkscape"
   xmlns:sodipodi="http://sodipodi.sourceforge.net/DTD/sodipodi-0.dtd"
   xmlns="http://www.w3.org/2000/svg"
   xmlns:svg="http://www.w3.org/2000/svg"><defs
     id="defs7" /><sodipodi:namedview
     id="namedview7"
     pagecolor="#ffffff"
     bordercolor="#999999"
     borderopacity="1"
     inkscape:showpageshadow="0"
     inkscape:pageopacity="0"
     inkscape:pagecheckerboard="0"
     inkscape:deskcolor="#d1d1d1"
     inkscape:zoom="4.4533333"
     inkscape:cx="45.022455"
     inkscape:cy="56.25"
     inkscape:window-width="1366"
     inkscape:window-height="697"
     inkscape:window-x="-8"
     inkscape:window-y="-8"
     inkscape:window-maximized="1"
     inkscape:current-layer="svg7" /><g
     id="g5"
     transform="translate(-1.7964072,9.4311377)"><path
       d="m 15.5,67 h 62 c 0.828,0 1.5,-0.672 1.5,-1.5 v -42 C 79,22.672 78.328,22 77.5,22 H 73.624 C 72.554,18.53 69.317,16 65.5,16 63.403,16 61.484,16.767 60,18.031 V 16.5 C 60,15.672 59.328,15 58.5,15 h -5 C 52.672,15 52,15.672 52,16.5 v 28 c 0,0.828 0.672,1.5 1.5,1.5 0.828,0 1.5,-0.672 1.5,-1.5 V 18 h 2 v 24.5 c 0,0.828 0.672,1.5 1.5,1.5 0.828,0 1.5,-0.672 1.5,-1.5 V 30.969 c 1.484,1.264 3.403,2.031 5.5,2.031 4.518,0 8.214,-3.547 8.475,-8 H 76 V 64 H 17 V 25 h 25 v 13.5 c 0,0.828 0.671,1.5 1.5,1.5 0.829,0 1.5,-0.672 1.5,-1.5 V 23 h 2 v 17.5 c 0,0.828 0.672,1.5 1.5,1.5 0.828,0 1.5,-0.672 1.5,-1.5 v -19 C 50,20.672 49.328,20 48.5,20 h -5 C 42.671,20 42,20.672 42,21.5 V 22 H 15.5 C 14.671,22 14,22.672 14,23.5 v 42 c 0,0.828 0.671,1.5 1.5,1.5 z m 50,-37 C 62.468,30 60,27.532 60,24.5 60,21.468 62.468,19 65.5,19 c 3.032,0 5.5,2.468 5.5,5.5 0,3.032 -2.468,5.5 -5.5,5.5 z"
       id="path1" /><path
       d="m 80.5,68 h -24 C 55.672,68 55,68.672 55,69.5 V 72 H 38 V 69.5 C 38,68.672 37.329,68 36.5,68 h -24 C 11.671,68 11,68.672 11,69.5 v 5.659 C 11,77.828 13.171,80 15.84,80 H 77.159 C 79.828,80 82,77.828 82,75.159 V 69.5 C 82,68.672 81.328,68 80.5,68 Z M 79,75.159 C 79,76.174 78.174,77 77.159,77 H 15.84 C 14.826,77 14,76.174 14,75.159 V 71 h 21 v 2.5 c 0,0.828 0.671,1.5 1.5,1.5 h 20 C 57.328,75 58,74.328 58,73.5 V 71 h 21 z"
       id="path2" /><path
       d="M 44.756,42.256 C 44.279,41.838 43.59,41.763 43.035,42.073 L 21.652,54.01 c -0.724,0.403 -0.982,1.317 -0.579,2.041 0.274,0.491 0.785,0.769 1.311,0.769 0.248,0 0.498,-0.062 0.729,-0.19 l 20.458,-11.42 10.757,9.45 c 0.572,0.504 1.436,0.497 2.001,-0.02 l 13.432,-12.26 0.003,1.789 c 0.002,0.827 0.673,1.497 1.5,1.497 0.001,0 0.002,0 0.003,0 0.828,-0.002 1.499,-0.675 1.497,-1.503 l -0.011,-5.519 c -0.001,-0.747 -0.552,-1.379 -1.291,-1.482 l -5.457,-0.767 c -0.822,-0.11 -1.579,0.457 -1.694,1.276 -0.115,0.82 0.456,1.579 1.276,1.694 L 68.21,39.734 55.3,51.519 Z"
       id="path3" /><path
       d="m 28.5,48 c 0.829,0 1.5,-0.672 1.5,-1.5 v -9 C 30,36.672 29.329,36 28.5,36 h -5 C 22.671,36 22,36.672 22,37.5 v 12 c 0,0.828 0.671,1.5 1.5,1.5 0.829,0 1.5,-0.672 1.5,-1.5 V 39 h 2 v 7.5 c 0,0.828 0.671,1.5 1.5,1.5 z"
       id="path4" /><path
       d="m 38.5,42 c 0.829,0 1.5,-0.672 1.5,-1.5 v -13 C 40,26.672 39.329,26 38.5,26 h -5 C 32.671,26 32,26.672 32,27.5 v 16 c 0,0.828 0.671,1.5 1.5,1.5 0.829,0 1.5,-0.672 1.5,-1.5 V 29 h 2 v 11.5 c 0,0.828 0.671,1.5 1.5,1.5 z"
       id="path5" /></g><path
     d="m 64.342593,32.891138 c -0.504,-0.224 -0.749,-0.377 -0.749,-0.469 0,-0.12 0.199,-0.138 0.318,-0.138 0.444,0 0.73,0.146 0.919,0.243 0.146,0.076 0.317,0.083 0.471,0.017 0.152,-0.066 0.266,-0.196 0.31,-0.354 l 0.246,-0.858 c 0.072,-0.25 -0.038,-0.511 -0.268,-0.636 -0.279,-0.151 -0.591,-0.258 -0.928,-0.317 v -0.393 c 0,-0.304 -0.247,-0.551 -0.55,-0.551 h -0.766 c -0.303,0 -0.55,0.247 -0.55,0.551 v 0.54 c -0.887,0.345 -1.43,1.105 -1.43,2.026 0,1.269 0.995,1.848 1.86,2.21 0.642,0.274 0.642,0.435 0.642,0.512 0,0.202 -0.313,0.218 -0.41,0.218 -0.482,0 -0.881,-0.192 -1.075,-0.306 -0.146,-0.087 -0.326,-0.101 -0.488,-0.036 -0.16,0.066 -0.277,0.199 -0.322,0.364 l -0.241,0.884 c -0.062,0.235 0.037,0.487 0.242,0.612 0.306,0.188 0.717,0.333 1.153,0.407 v 0.457 c 0,0.304 0.247,0.551 0.551,0.551 h 0.765 c 0.304,0 0.551,-0.247 0.551,-0.551 v -0.594 c 0.932,-0.34 1.502,-1.134 1.502,-2.113 0,-1.04 -0.557,-1.763 -1.753,-2.276 z"
     id="path6" /></svg>
