<?xml version="1.0" encoding="UTF-8" standalone="no"?>
<svg
   data-name="Layer 1"
   viewBox="0 0 95 118.75"
   x="0px"
   y="0px"
   version="1.1"
   id="svg2"
   sodipodi:docname="noun-advisor-6358222.svg"
   inkscape:version="1.3.1 (91b66b0783, 2023-11-16)"
   xmlns:inkscape="http://www.inkscape.org/namespaces/inkscape"
   xmlns:sodipodi="http://sodipodi.sourceforge.net/DTD/sodipodi-0.dtd"
   xmlns="http://www.w3.org/2000/svg"
   xmlns:svg="http://www.w3.org/2000/svg">
  <sodipodi:namedview
     id="namedview2"
     pagecolor="#ffffff"
     bordercolor="#999999"
     borderopacity="1"
     inkscape:showpageshadow="0"
     inkscape:pageopacity="0"
     inkscape:pagecheckerboard="0"
     inkscape:deskcolor="#d1d1d1"
     inkscape:zoom="4.2189474"
     inkscape:cx="47.523703"
     inkscape:cy="59.375"
     inkscape:window-width="1366"
     inkscape:window-height="697"
     inkscape:window-x="-8"
     inkscape:window-y="-8"
     inkscape:window-maximized="1"
     inkscape:current-layer="svg2" />
  <defs
     id="defs1">
    <style
       id="style1">.cls-1{fill-rule:evenodd;}</style>
  </defs>
  <title
     id="title1">a</title>
  <path
     class="cls-1"
     d="m 65.680974,84.46522 4.727,-16.853 h -42.292 l 4.727,16.853 z m -28.577,-49.515 a 12.158,12.158 0 1 0 12.159,-12.157 12.171,12.171 0 0 0 -12.159,12.157 z m 56.159,53.414 H 1.2629741 v 6.123 H 93.262974 Z m -18.408,-22.174 a 1.95,1.95 0 0 0 -1.877,-2.476 h -47.433 a 1.949,1.949 0 0 0 -1.877,2.476 l 5.127,18.275 h -14.606 v -7.342 a 22.2,22.2 0 0 1 22.174,-22.174 h 25.8 a 22.2,22.2 0 0 1 22.171,22.174 v 7.342 h -14.605 z m -25.592,11.698 a 1.4,1.4 0 1 1 1.4,-1.4 1.4,1.4 0 0 1 -1.4,1.4 z m 5.3,-1.4 a 5.3,5.3 0 1 1 -5.3,-5.3 5.3,5.3 0 0 1 5.3,5.303 z"
     id="path1" />
</svg>
