<?xml version="1.0" encoding="UTF-8" standalone="no"?>
<svg
   version="1.1"
   x="0px"
   y="0px"
   viewBox="0 0 100 125"
   style="enable-background:new 0 0 100 100;"
   xml:space="preserve"
   id="svg5"
   sodipodi:docname="noun-fast-cash-853998.svg"
   inkscape:version="1.3.1 (91b66b0783, 2023-11-16)"
   xmlns:inkscape="http://www.inkscape.org/namespaces/inkscape"
   xmlns:sodipodi="http://sodipodi.sourceforge.net/DTD/sodipodi-0.dtd"
   xmlns="http://www.w3.org/2000/svg"
   xmlns:svg="http://www.w3.org/2000/svg"><defs
     id="defs5" /><sodipodi:namedview
     id="namedview5"
     pagecolor="#ffffff"
     bordercolor="#999999"
     borderopacity="1"
     inkscape:showpageshadow="0"
     inkscape:pageopacity="0"
     inkscape:pagecheckerboard="0"
     inkscape:deskcolor="#d1d1d1"
     inkscape:zoom="4.008"
     inkscape:cx="50.02495"
     inkscape:cy="62.5"
     inkscape:window-width="1366"
     inkscape:window-height="697"
     inkscape:window-x="-8"
     inkscape:window-y="-8"
     inkscape:window-maximized="1"
     inkscape:current-layer="svg5" /><rect
     x="13.100998"
     y="72.126549"
     width="11.1"
     height="5.5"
     id="rect1" /><rect
     x="8.1009979"
     y="59.126549"
     width="16.1"
     height="5.4000001"
     id="rect2" /><rect
     x="1.400998"
     y="46.226547"
     width="22.799999"
     height="5.8000002"
     id="rect3" /><path
     d="m 93.800998,39.526547 h -59.5 c -2.1,0 -3.8,1.8 -3.8,4.1 v 36.2 c 0,2.2 1.7,4.1 3.8,4.1 h 59.5 c 2.1,0 3.8,-1.8 3.8,-4.1 v -36.2 c 0,-2.2 -1.7,-4.1 -3.8,-4.1 z m -47.1,29.9 h -9.2 c -0.6,0 -1,-0.5 -1,-1 0,-0.6 0.5,-1 1,-1 h 9.2 c 0.6,0 1,0.5 1,1 0,0.6 -0.4,1 -1,1 z m -10.3,-8.1 c 0,-0.6 0.5,-1 1,-1 h 9.2 c 0.6,0 1,0.5 1,1 0,0.5 -0.5,1 -1,1 h -9.2 c -0.5,0.1 -1,-0.4 -1,-1 z m 10.3,-6.3 h -9.2 c -0.6,0 -1,-0.5 -1,-1 0,-0.6 0.5,-1 1,-1 h 9.2 c 0.6,0 1,0.5 1,1 0,0.5 -0.4,1 -1,1 z m 17.3,21 c -6.3,0 -11.5,-6.4 -11.5,-14.3 0,-7.9 5.2,-14.3 11.6,-14.3 6.4,0 11.6,6.4 11.6,14.3 -0.1,7.9 -5.3,14.3 -11.7,14.3 z m 26.6,-6.6 h -9.2 c -0.6,0 -1,-0.5 -1,-1 0,-0.6 0.5,-1 1,-1 h 9.2 c 0.6,0 1,0.5 1,1 0,0.6 -0.4,1 -1,1 z m -10.3,-8.1 c 0,-0.6 0.5,-1 1,-1 h 9.2 c 0.6,0 1,0.5 1,1 0,0.5 -0.5,1 -1,1 h -9.2 c -0.5,0.1 -1,-0.4 -1,-1 z m 10.3,-6.3 h -9.2 c -0.6,0 -1,-0.5 -1,-1 0,-0.6 0.5,-1 1,-1 h 9.2 c 0.6,0 1,0.5 1,1 0,0.5 -0.4,1 -1,1 z"
     id="path3" /><path
     d="m 65.100998,53.926547 v -0.6 c 0,-0.6 -0.5,-1.1 -1.1,-1.1 -0.6,0 -1.1,0.5 -1.1,1.1 v 0.7 c -1.8,0.5 -3.2,2.2 -3.2,4.2 0,2 1.3,3.7 3.2,4.2 v 4.1 c -0.8,-0.4 -1.6,-1.2 -1.9,-1.6 -0.4,-0.5 -1.1,-0.5 -1.5,-0.1 -0.5,0.4 -0.5,1.1 -0.1,1.5 0.2,0.2 1.7,1.9 3.6,2.5 v 0.7 c 0,0.6 0.5,1.1 1.1,1.1 0.6,0 1.1,-0.5 1.1,-1.1 v -0.8 c 1.9,-0.5 3.3,-2.2 3.3,-4.2 0,-2 -1.4,-3.7 -3.3,-4.2 v -4.1 c 0.9,0.3 1.7,1 2,1.3 0.4,0.4 1.1,0.4 1.6,0 0.4,-0.4 0.4,-1.1 0,-1.6 -0.3,-0.1 -1.8,-1.5 -3.7,-2 z m -2.2,6 c -0.6,-0.4 -1,-1 -1,-1.8 0,-0.7 0.4,-1.4 1,-1.8 z m 3.3,4.7 c 0,0.8 -0.4,1.5 -1.1,1.8 v -3.7 c 0.7,0.4 1.1,1.1 1.1,1.9 z"
     id="path4" /></svg>
