<svg xmlns="http://www.w3.org/2000/svg" xmlns:xlink="http://www.w3.org/1999/xlink" xml:space="preserve" style="shape-rendering:geometricPrecision;text-rendering:geometricPrecision;image-rendering:optimizeQuality;" viewBox="0 0 6.82666 8.533325000000001" x="0px" y="0px" fill-rule="evenodd" clip-rule="evenodd"><defs><style type="text/css">
   
    .fil2 {fill:none}
    .fil1 {fill:black}
    .fil0 {fill:black;fill-rule:nonzero}
   
  </style></defs><g><g><path class="fil0" d="M2.51065 2.32329l3.07013 0c0.0707992,0 0.128827,0.0581299 0.128827,0.128827l0 1.94274c0,0.0708661 -0.0579843,0.128823 -0.128827,0.128823l-3.14562 0c-0.0294528,0 -0.0533346,-0.0238819 -0.0533346,-0.0533346l0 -2.01823c0,-0.0707992 0.0581299,-0.128827 0.128827,-0.128827zm3.07013 0.106669l-3.07013 0c-0.0122244,0 -0.0221575,0.0099252 -0.0221575,0.0221575l0 1.9649 3.09229 0c0.0121102,0 0.0221575,-0.00999606 0.0221575,-0.0221535l0 -1.94274c0,-0.0122244 -0.0099252,-0.0221575 -0.0221575,-0.0221575z"/><path class="fil0" d="M2.67674 3.2091l0.563697 0c0.0294528,0 0.0533346,0.0238819 0.0533346,0.0533346l0 0.402642c0,0.0294528 -0.0238819,0.0533346 -0.0533346,0.0533346l-0.563697 0c-0.0294528,0 -0.0533346,-0.0238819 -0.0533346,-0.0533346l0 -0.402642c0,-0.0294528 0.0238819,-0.0533346 0.0533346,-0.0533346zm0.510362 0.106669l-0.457028 0 0 0.295972 0.457028 0 0 -0.295972z"/><path class="fil0" d="M4.83998 3.08569c-0.0208228,-0.0208228 -0.0545945,-0.0208228 -0.0754173,0 -0.0208228,0.0208228 -0.0208228,0.0545945 0,0.0754173 0.0267323,0.0267283 0.0401024,0.0617795 0.0401024,0.0968268 0,0.0350472 -0.0133701,0.0700984 -0.0401024,0.0968307 -0.0208228,0.0208228 -0.0208228,0.0545945 0,0.0754173 0.0208228,0.0208228 0.0545945,0.0208228 0.0754173,0 0.0475709,-0.0475709 0.0713543,-0.109913 0.0713543,-0.172248 0,-0.0623346 -0.0237874,-0.124681 -0.0713543,-0.172244z"/><path class="fil0" d="M4.99278 3.02261c-0.0208228,-0.0208228 -0.0545945,-0.0208228 -0.0754173,0 -0.0208228,0.0208228 -0.0208228,0.0545945 0,0.0754173 0.0416929,0.0416929 0.0625433,0.0963543 0.0625433,0.151008 0,0.0546575 -0.0208504,0.109315 -0.0625433,0.151008 -0.0208228,0.0208228 -0.0208228,0.0545945 0,0.0754173 0.0208228,0.0208228 0.0545945,0.0208228 0.0754173,0 0.0625315,-0.0625315 0.0937953,-0.14448 0.0937953,-0.226425 0,-0.0819409 -0.0312638,-0.163894 -0.0937953,-0.226425z"/><path class="fil0" d="M5.13744 2.91739c-0.0208228,-0.0208228 -0.0545945,-0.0208228 -0.0754173,0 -0.0208228,0.0208228 -0.0208228,0.0545945 0,0.0754173 0.0674921,0.0674882 0.10124,0.155961 0.10124,0.244429 0,0.0884685 -0.033748,0.176945 -0.10124,0.244433 -0.0208228,0.0208228 -0.0208228,0.0545945 0,0.0754173 0.0208228,0.0208228 0.0545945,0.0208228 0.0754173,0 0.0883307,-0.0883268 0.132492,-0.204098 0.132492,-0.31985 0,-0.115756 -0.0441654,-0.231524 -0.132492,-0.319846z"/><path class="fil0" d="M5.2748 2.80933c-0.0208228,-0.0208228 -0.0545945,-0.0208228 -0.0754173,0 -0.0208228,0.0208228 -0.0208228,0.0545945 0,0.0754173 0.103047,0.103043 0.154575,0.238118 0.154575,0.373185 0,0.135071 -0.0515276,0.270146 -0.154575,0.373189 -0.0208228,0.0208228 -0.0208228,0.0545945 0,0.0754173 0.0208228,0.0208228 0.0545945,0.0208228 0.0754173,0 0.123882,-0.123878 0.185827,-0.286248 0.185827,-0.448606 0,-0.162354 -0.0619449,-0.324724 -0.185827,-0.448602z"/><path class="fil0" d="M2.75727 3.95322c-0.0294528,0 -0.0533346,0.0238819 -0.0533346,0.0533346 0,0.0294528 0.0238819,0.0533346 0.0533346,0.0533346l0.402642 0c0.0294528,0 0.0533346,-0.0238819 0.0533346,-0.0533346 0,-0.0294528 -0.0238819,-0.0533346 -0.0533346,-0.0533346l-0.402642 0z"/><path class="fil0" d="M3.43206 3.95322c-0.0294528,0 -0.0533346,0.0238819 -0.0533346,0.0533346 0,0.0294528 0.0238819,0.0533346 0.0533346,0.0533346l0.402638 0c0.0294528,0 0.0533346,-0.0238819 0.0533346,-0.0533346 0,-0.0294528 -0.0238819,-0.0533346 -0.0533346,-0.0533346l-0.402638 0z"/><path class="fil0" d="M4.10683 3.95322c-0.0294528,0 -0.0533346,0.0238819 -0.0533346,0.0533346 0,0.0294528 0.0238819,0.0533346 0.0533346,0.0533346l0.402642 0c0.0294528,0 0.0533346,-0.0238819 0.0533346,-0.0533346 0,-0.0294528 -0.0238819,-0.0533346 -0.0533346,-0.0533346l-0.402642 0z"/><path class="fil0" d="M4.78161 3.95322c-0.0294528,0 -0.0533346,0.0238819 -0.0533346,0.0533346 0,0.0294528 0.0238819,0.0533346 0.0533346,0.0533346l0.402642 0c0.0294528,0 0.0533346,-0.0238819 0.0533346,-0.0533346 0,-0.0294528 -0.0238819,-0.0533346 -0.0533346,-0.0533346l-0.402642 0z"/><path class="fil0" d="M2.91833 4.25596c-0.0294528,0 -0.0533346,0.0238819 -0.0533346,0.0533346 0,0.0294528 0.0238819,0.0533346 0.0533346,0.0533346l0.80528 0c0.0294528,0 0.0533346,-0.0238819 0.0533346,-0.0533346 0,-0.0294528 -0.0238819,-0.0533346 -0.0533346,-0.0533346l-0.80528 0z"/><path class="fil0" d="M2.75727 2.64541c-0.0294528,0 -0.0533346,0.0238819 -0.0533346,0.0533346 0,0.0294528 0.0238819,0.0533346 0.0533346,0.0533346l0.724752 0c0.0294528,0 0.0533346,-0.0238819 0.0533346,-0.0533346 0,-0.0294528 -0.0238819,-0.0533346 -0.0533346,-0.0533346l-0.724752 0z"/><path class="fil0" d="M3.32096 2.96752c-0.0294528,0 -0.0533346,0.0238819 -0.0533346,0.0533346 0,0.0294528 0.0238819,0.0533346 0.0533346,0.0533346l0.724752 0c0.0294528,0 0.0533346,-0.0238819 0.0533346,-0.0533346 0,-0.0294528 -0.0238819,-0.0533346 -0.0533346,-0.0533346l-0.724752 0z"/><path class="fil0" d="M4.39994 4.47081l0 1.25178c0,0.0685354 -0.0280039,0.130811 -0.0731142,0.175917 -0.0451102,0.0451102 -0.107386,0.0731142 -0.175921,0.0731142l-2.36405 0c-0.0685354,0 -0.130811,-0.0280039 -0.175917,-0.0731142 -0.0451102,-0.0451063 -0.0731142,-0.107382 -0.0731142,-0.175917l0 -0.388091 0.106669 0 0 0.388091c0,0.0390906 0.0160354,0.0746772 0.0418622,0.1005 0.0258228,0.0258268 0.0614094,0.0418622 0.1005,0.0418622l2.36405 0c0.0390906,0 0.0746772,-0.0160354 0.100504,-0.0418622 0.0258268,-0.0258228 0.0418622,-0.0614094 0.0418622,-0.1005l0 -1.25178 0.106669 0zm-2.86212 -0.203496l0 -3.16324c0,-0.0685394 0.028,-0.130807 0.0731102,-0.175921 0.0451142,-0.0451102 0.107382,-0.0731102 0.175921,-0.0731102l2.36405 0c0.0685433,0 0.130815,0.0280039 0.175921,0.0731142 0.0451102,0.0451063 0.0731142,0.107382 0.0731142,0.175917l0 1.27237 -0.106669 0 0 -1.27237c0,-0.0390906 -0.0160354,-0.0746772 -0.0418622,-0.1005 -0.0258228,-0.0258268 -0.0614094,-0.0418622 -0.100504,-0.0418622l-2.36405 0c-0.0390945,0 -0.0746772,0.0160315 -0.100504,0.0418583 -0.0258268,0.0258268 -0.0418583,0.0614094 -0.0418583,0.100504l0 3.16324 -0.106669 0z"/><path class="fil0" d="M3.96135 0.908606c-0.000866142,0.116307 -0.0410551,0.222252 -0.105276,0.299323 -0.0666378,0.0799606 -0.158894,0.129524 -0.260953,0.129524l-1.25248 0c-0.102051,0 -0.194319,-0.049563 -0.260949,-0.129524 -0.0642244,-0.077063 -0.104413,-0.183012 -0.10528,-0.299315l0.106252 -0.000417323c0.000673228,0.0907559 0.0314803,0.172764 0.0806969,0.231819 0.0466929,0.0560315 0.110157,0.0907677 0.17928,0.0907677l1.25248 0c0.069126,0 0.132587,-0.0347362 0.179283,-0.0907677 0.0492126,-0.0590591 0.0800197,-0.141067 0.0806929,-0.231827l0.106252 0.000417323z"/><path class="fil0" d="M2.52422 1.04293c-0.0294528,0 -0.0533346,0.0238819 -0.0533346,0.0533346 0,0.0294528 0.0238819,0.0533346 0.0533346,0.0533346l0.594472 0c0.0294528,0 0.0533346,-0.0238819 0.0533346,-0.0533346 0,-0.0294528 -0.0238819,-0.0533346 -0.0533346,-0.0533346l-0.594472 0z"/><path class="fil1" d="M3.36021 1.04293c0.0294488,0 0.0533307,0.023878 0.0533307,0.0533307 0,0.0294488 -0.0238819,0.0533268 -0.0533307,0.0533268 -0.0294528,0 -0.0533307,-0.023878 -0.0533307,-0.0533268 0,-0.0294528 0.023878,-0.0533307 0.0533307,-0.0533307z"/><path class="fil0" d="M1.17039 4.63999l0.100449 0 0 -0.100457c0,-0.155217 0.0854488,-0.254945 0.194811,-0.298902 0.0417717,-0.0167913 0.086748,-0.025189 0.131409,-0.025189 0.0446575,0 0.0896339,0.00839764 0.131406,0.025189 0.10937,0.0439567 0.194815,0.143693 0.194815,0.298902l0 0.100457 0.100445 0c0.0294528,0 0.0533346,0.0238819 0.0533346,0.0533346l0 0.64c0,0.0294528 -0.0238819,0.0533346 -0.0533346,0.0533346l-0.853335 0c-0.0294528,0 -0.0533346,-0.0238819 -0.0533346,-0.0533346l0 -0.64c0,-0.0294528 0.0238819,-0.0533346 0.0533346,-0.0533346zm0.207118 0l0.439102 0 0 -0.100457c0,-0.104705 -0.0560276,-0.171335 -0.127728,-0.200154 -0.0286339,-0.0115079 -0.0600787,-0.0172677 -0.0918228,-0.0172677 -0.031748,0 -0.063189,0.00575591 -0.0918268,0.0172677 -0.0716969,0.0288189 -0.127724,0.0954449 -0.127724,0.200154l0 0.100457zm0.592882 0.106669l-0.746665 0 0 0.533331 0.746665 0 0 -0.533331z"/></g></g><rect class="fil2" width="6.82666" height="6.82666"/><text x="0" y="21.82666" fill="#000000" font-size="5px" font-weight="bold" font-family="'Helvetica Neue', Helvetica, Arial-Unicode, Arial, Sans-serif">Created by Graphic Nehar</text><text x="0" y="26.82666" fill="#000000" font-size="5px" font-weight="bold" font-family="'Helvetica Neue', Helvetica, Arial-Unicode, Arial, Sans-serif">from the Noun Project</text></svg>