<?xml version="1.0" encoding="UTF-8" standalone="no"?>
<svg
   version="1.1"
   x="0px"
   y="0px"
   viewBox="0 0 68 85"
   style="enable-background:new 0 0 68 68;"
   xml:space="preserve"
   id="svg18"
   sodipodi:docname="noun-helpline-5007521.svg"
   inkscape:version="1.3.1 (91b66b0783, 2023-11-16)"
   xmlns:inkscape="http://www.inkscape.org/namespaces/inkscape"
   xmlns:sodipodi="http://sodipodi.sourceforge.net/DTD/sodipodi-0.dtd"
   xmlns="http://www.w3.org/2000/svg"
   xmlns:svg="http://www.w3.org/2000/svg"><defs
     id="defs18" /><sodipodi:namedview
     id="namedview18"
     pagecolor="#ffffff"
     bordercolor="#999999"
     borderopacity="1"
     inkscape:showpageshadow="0"
     inkscape:pageopacity="0"
     inkscape:pagecheckerboard="0"
     inkscape:deskcolor="#d1d1d1"
     inkscape:zoom="5.8941176"
     inkscape:cx="34.016966"
     inkscape:cy="42.669661"
     inkscape:window-width="1366"
     inkscape:window-height="697"
     inkscape:window-x="-8"
     inkscape:window-y="-8"
     inkscape:window-maximized="1"
     inkscape:current-layer="svg18" /><g
     id="g17"
     transform="translate(0.50898204,8.8223553)"><g
       id="g9"><g
         id="g2"><g
           id="g1"><path
             d="m 45.5,6.2 c -0.6,4 -1.7,8.2 -3.2,12.4 -0.4,1 -0.2,1.8 0.1,2 l 3.5,2 c 0,0 0,0 0,0 l 3.1,1.8 c 0,-0.5 0.1,-1 0.3,-1.5 1.5,-4.1 2.6,-8.2 3.2,-12.2 0.2,-1.2 0.9,-2.4 1.9,-3.1 0,0 0.1,-0.1 0.1,-0.1 0.1,-0.1 0.2,-0.1 0.3,-0.2 v 0 c 0,0 0,0 0,0 v 0 L 55.1,7.2 55.3,7 56.8,6.4 C 57.2,6.3 57.6,6.2 58,6.1 L 52.4,2.8 C 51.5,2.3 50.5,2.3 49.3,2.7 l -1.8,0.7 c -1,0.6 -1.8,1.7 -2,2.8 z"
             id="path1" /></g></g><g
         id="g4"><g
           id="g3"><path
             d="m 25.8,57 c 1.3,-1.1 2.6,-2.2 3.8,-3.4 0.3,-0.2 0.5,-0.5 0.8,-0.7 0,0 0,0 0,0 1.5,-1.5 3,-3.1 4.4,-4.7 0.2,-0.2 0.4,-0.4 0.6,-0.6 0.2,-0.1 0.3,-0.3 0.5,-0.4 0,0 0.1,0 0.1,-0.1 l -0.6,-0.4 -2.5,-1.4 c 0,0 0,0 0,0 l -3.5,-2 c -0.1,0 -0.2,-0.1 -0.3,-0.1 -0.2,0 -0.4,0.1 -0.7,0.2 -0.3,0.2 -0.6,0.4 -0.8,0.7 -2.9,3.5 -6,6.5 -9.1,9 -0.9,0.7 -1.5,2.1 -1.4,3 0,0 0,0 0,0.1 v 0.1 l 0.2,1.7 c 0.3,1.1 0.9,2 1.7,2.5 l 5.6,3.2 c -0.1,-0.3 -0.2,-0.6 -0.3,-0.9 l -0.3,-2 c -0.1,-1.1 0.5,-2.5 1.4,-3.5 0.1,-0.1 0.2,-0.2 0.4,-0.3 z"
             id="path2" /></g></g><g
         id="g6"><g
           id="g5"><path
             d="m 34,44.8 2.3,1.3 1.5,0.9 c 0,0 0.1,0.1 0.1,0.1 0,0 0,0 0,0 0.1,0.1 0.2,0.2 0.3,0.3 v 0 c 0,0 0,0 0,0 l 0.1,0.2 1,1.4 c 0,0.1 0.1,0.1 0.2,0.2 0,0 0,0 0.1,0 0.1,0 0.1,0.1 0.2,0.1 0.1,0 0.2,0 0.2,0 0,0 0,0 0,0 0.1,0 0.2,0 0.2,0 0,0 0,0 0,0 0.2,0 0.4,-0.1 0.6,-0.2 0.2,-0.1 0.5,-0.3 0.7,-0.6 0.2,-0.2 0.4,-0.4 0.5,-0.6 4.2,-5.7 7.8,-11.9 10.6,-18.3 0,-0.1 0,-0.1 0.1,-0.2 0.1,-0.2 0.2,-0.4 0.2,-0.6 0,-0.1 0,-0.1 0,-0.2 0,-0.2 0.1,-0.4 0.1,-0.6 0,-0.1 0,-0.2 0,-0.3 0,0 0,0 0,-0.1 0,0 0,-0.1 0,-0.1 0,-0.1 -0.1,-0.2 -0.1,-0.3 0,0 0,-0.1 -0.1,-0.1 0,0 0,0 -0.1,-0.1 -0.1,-0.1 -0.2,-0.3 -0.4,-0.3 h -0.2 c -0.3,-0.1 -0.5,-0.1 -0.8,-0.2 -0.3,-0.1 -0.6,-0.1 -0.9,-0.1 -0.1,0 -0.3,0 -0.4,-0.1 0,0 -0.1,0 -0.2,-0.1 0,0 0,0 -0.1,0 0,0 -0.1,0 -0.1,-0.1 L 46,24 c -0.1,0.4 -0.2,0.9 -0.4,1.4 -2.8,6.5 -6.4,12.7 -10.7,18.5 -0.2,0.2 -0.5,0.6 -0.9,0.9 z"
             id="path4" /></g></g><g
         id="g8"><g
           id="g7"><path
             d="m 25,60.9 0.3,1.7 c 0.1,0.3 0.1,0.5 0.2,0.7 0,0 0,0.1 0,0.1 0.1,0.2 0.2,0.3 0.3,0.5 0,0.1 0.1,0.2 0.1,0.2 0.1,0.1 0.2,0.3 0.3,0.4 0.1,0.1 0.1,0.1 0.2,0.2 0.1,0.1 0.2,0.2 0.4,0.3 0.1,0.1 0.3,0.2 0.4,0.3 1.2,0.5 2.8,0.3 4.4,-0.7 0.4,-0.3 0.9,-0.6 1.4,-0.9 11.6,-9.2 20.6,-22 25.5,-35.9 1.1,-3.7 2.4,-7.9 2.9,-10.7 0,0 0,0 0,0 C 61.7,15.7 61.9,14.4 62,13 62.3,10.6 61.8,8.8 60.6,7.8 60.4,7.7 60.2,7.6 60.1,7.5 60,7.4 59.8,7.4 59.7,7.3 c -0.1,0 -0.2,-0.1 -0.3,-0.1 -0.2,0 -0.3,-0.1 -0.5,-0.1 -0.1,0 -0.2,0 -0.3,0 -0.2,0 -0.4,0 -0.6,0 -0.1,0 -0.2,0 -0.3,0 -0.2,0 -0.3,0.1 -0.5,0.1 -0.1,0 -0.1,0 -0.2,0.1 L 55.2,8 C 55,8.1 54.8,8.3 54.6,8.5 54,9.1 53.6,9.9 53.4,10.7 52.8,14.6 51.7,18.8 50.2,23 50,23.5 50,23.9 50,24.3 c 0,0 0,0 0,0 0,0.1 0,0.3 0.1,0.4 0,0 0,0 0,0 0.1,0.1 0.1,0.2 0.2,0.2 v 0 c 0,0 0,0 0,0 0.1,0 0.1,0 0.2,0.1 0.4,0 0.7,0.1 1,0.1 0.3,0 0.6,0.1 0.8,0.2 0,0 0,0 0,0 v 0 c 0.1,0 0.1,0 0.2,0 0.2,0 0.4,0.1 0.5,0.2 0,0 0,0 0,0 0.3,0.2 0.5,0.4 0.6,0.7 0,0 0,0.1 0,0.1 0,0.1 0.1,0.2 0.1,0.3 0,0.1 0.1,0.2 0.1,0.4 0,0 0,0 0,0 0,0.1 0,0.3 0,0.4 0,0.1 0,0.1 0,0.2 0,0.1 0,0.1 0,0.2 0,0.2 -0.1,0.5 -0.1,0.8 0,0 0,0.1 0,0.1 -0.1,0.3 -0.2,0.6 -0.3,0.9 -2.9,6.5 -6.5,12.7 -10.7,18.5 -0.3,0.4 -0.6,0.7 -0.9,1 -0.2,0.2 -0.4,0.4 -0.7,0.5 -0.9,0.5 -1.7,0.5 -2.3,0.1 -0.1,0 -0.1,-0.1 -0.2,-0.1 0,0 -0.1,-0.1 -0.1,-0.1 -0.1,-0.1 -0.2,-0.1 -0.2,-0.3 l -1,-1.3 0.1,0.1 c -0.1,-0.1 -0.1,-0.1 -0.2,-0.2 -0.1,0 -0.1,0 -0.2,0 0,0 0,0 0,0 0,0 0,0 -0.1,0 -0.2,0 -0.5,0.1 -0.6,0.2 -0.1,0.1 -0.3,0.2 -0.4,0.3 -0.1,0.1 -0.3,0.3 -0.4,0.4 -1.8,2.1 -3.6,4 -5.5,5.8 -1.2,1.1 -2.4,2.2 -3.6,3.2 -0.7,0.5 -1.2,1.4 -1.4,2.2 0,0.3 0,0.6 0,0.9 z"
             id="path6" /></g></g></g><g
       id="g16"><g
         id="g11"><g
           id="g10"><path
             d="M 21.5,7.1 C 22,6.8 22.4,6.6 22.9,6.4 23.1,6.3 23.2,6.3 23.4,6.2 23.7,6.1 24,6 24.3,5.9 c 0.2,-0.1 0.4,-0.1 0.6,-0.2 0.3,-0.1 0.5,-0.1 0.8,-0.2 0.2,0 0.4,-0.1 0.6,-0.1 0.2,0 0.5,-0.1 0.7,-0.1 0.1,0 0.2,0 0.3,0 L 26.2,4.7 C 25.3,4.2 24.3,3.9 23.2,3.9 21.6,3.9 19.8,4.4 18,5.5 11.4,9.3 6,18.6 6,26.2 c 0,3.6 1.2,6.2 3.3,7.5 l 1.1,0.6 C 10.4,34.2 10.3,34.1 10.3,34 10.2,33.8 10.1,33.6 10,33.3 9.9,33.1 9.9,33 9.8,32.8 9.7,32.6 9.6,32.3 9.6,32 9.6,31.8 9.5,31.6 9.5,31.4 9.4,31.1 9.4,30.9 9.4,30.6 9.4,30.4 9.3,30.2 9.3,30 c 0,-0.2 0,-0.5 0,-0.8 0,-0.2 0,-0.5 0,-0.7 0,-4.7 2,-10.1 5.1,-14.5 1.8,-2.8 4.3,-5.3 7.1,-6.9 z"
             id="path9" /></g></g><g
         id="g13"><g
           id="g12"><polygon
             points="19.1,23.4 21.4,22.1 21.4,18.7 "
             id="polygon11" /></g></g><g
         id="g15"><g
           id="g14"><path
             d="m 10.9,33.4 c 0.1,0.3 0.3,0.6 0.5,0.8 0,0 0,0 0,0 0.5,0.8 1.2,1.5 2,1.9 2.2,1.2 5.1,0.9 8.2,-0.9 6.6,-3.8 12,-13.1 12,-20.8 0,-3.6 -1.2,-6.2 -3.3,-7.4 0,0 0,0 0,0 -0.3,0 -0.6,-0.2 -0.8,-0.3 0,0 -0.1,0 -0.1,0 C 29.2,6.6 29,6.6 28.8,6.5 c -0.1,0 -0.2,-0.1 -0.4,-0.1 -0.1,0 -0.2,0 -0.3,0 -1.6,-0.2 -3.4,0.1 -5.2,1 C 22.7,7.6 22.3,7.8 22,8 19.8,9.3 17.7,11.2 15.9,13.5 12.4,17.9 10,23.7 10,28.7 c 0,1.8 0.3,3.3 0.9,4.7 0,-0.1 0,-0.1 0,0 z M 27.4,16.3 c 0.1,-0.1 0.1,-0.2 0.2,-0.2 l 2.9,-1.7 c 0.1,-0.1 0.2,-0.1 0.3,0 0.1,0 0.1,0.1 0.1,0.2 0,0.1 0,0.3 -0.1,0.4 l -2,6 c 0,0.1 -0.1,0.2 -0.1,0.2 -0.1,0.1 -0.1,0.1 -0.2,0.2 -0.1,0.1 -0.2,0.1 -0.2,0 -0.1,0 -0.1,-0.1 -0.1,-0.2 0,-0.1 0,-0.1 0,-0.2 l 2,-5.7 -2.6,1.5 c -0.1,0 -0.2,0.1 -0.2,0 -0.1,0 -0.1,-0.1 -0.1,-0.2 0,-0.1 0.1,-0.2 0.1,-0.3 z m -3.5,7.3 2.3,-9 c 0,-0.1 0.1,-0.2 0.1,-0.3 0.1,-0.1 0.1,-0.2 0.2,-0.2 0.1,-0.1 0.2,-0.1 0.3,0 0.1,0 0.1,0.1 0.1,0.2 0,0 0,0.1 0,0.2 l -2.3,9 c 0,0.1 -0.1,0.2 -0.1,0.3 -0.1,0.1 -0.1,0.2 -0.2,0.2 -0.2,0 -0.2,0 -0.3,0 -0.1,0 -0.1,-0.1 -0.1,-0.2 0,-0.1 0,-0.1 0,-0.2 z m -5.5,0 2.7,-5.5 c 0,-0.1 0.1,-0.2 0.2,-0.3 0.1,-0.1 0.2,-0.2 0.2,-0.2 l 0.2,-0.1 c 0.1,-0.1 0.3,-0.1 0.4,0 0.1,0.1 0.1,0.2 0.1,0.3 v 3.9 l 0.7,-0.4 c 0.1,-0.1 0.2,-0.1 0.3,0 0.1,0.1 0.1,0.1 0.1,0.2 0,0.1 0,0.2 -0.1,0.3 -0.1,0.1 -0.2,0.2 -0.3,0.3 l -0.7,0.4 v 1.4 c 0,0.1 0,0.3 -0.1,0.4 -0.1,0.1 -0.2,0.2 -0.3,0.3 -0.1,0.1 -0.2,0.1 -0.3,0 -0.1,0 -0.1,-0.1 -0.1,-0.3 v -1.4 l -2.6,1.5 c -0.1,0.1 -0.3,0.1 -0.4,0 -0.1,-0.1 -0.1,-0.2 -0.1,-0.3 V 24 c 0,-0.1 0,-0.2 0.1,-0.4 z m -2.1,-1.9 c -0.2,-0.1 -0.6,0 -1,0.3 -0.5,0.3 -1,0.7 -1.5,1.2 -0.1,0.1 -0.1,0.1 -0.2,0.1 -0.1,0.1 -0.2,0.1 -0.2,0 -0.1,0 -0.1,-0.1 -0.1,-0.2 0,-0.2 0.1,-0.3 0.2,-0.5 0.6,-0.7 1.2,-1.2 1.9,-1.6 0.4,-0.2 0.7,-0.3 1,-0.3 0.3,0 0.5,0.1 0.7,0.3 0.2,0.2 0.3,0.5 0.3,0.9 0,0.4 -0.1,0.8 -0.3,1.3 -0.2,0.4 -0.4,0.9 -0.7,1.3 -0.3,0.4 -0.6,0.9 -1.1,1.5 -0.4,0.5 -0.7,1 -0.9,1.3 -0.2,0.3 -0.3,0.6 -0.4,0.8 l 3,-1.7 c 0.1,-0.1 0.2,-0.1 0.3,0 0.1,0 0.1,0.1 0.1,0.2 0,0.1 0,0.2 -0.1,0.4 -0.1,0.1 -0.2,0.2 -0.3,0.3 l -3.3,1.9 c -0.1,0.1 -0.2,0.1 -0.3,0 -0.1,0 -0.1,-0.1 -0.1,-0.3 0,-0.3 0.1,-0.7 0.3,-1.1 0.2,-0.4 0.4,-0.8 0.6,-1.1 0.2,-0.3 0.6,-0.8 1,-1.4 0.4,-0.5 0.6,-0.8 0.8,-1.1 0.2,-0.3 0.4,-0.6 0.5,-0.9 0.1,-0.3 0.2,-0.6 0.2,-0.8 -0.1,-0.4 -0.2,-0.7 -0.4,-0.8 z"
             id="path13" /></g></g></g></g></svg>
